<svg version="1.2" xmlns="http://www.w3.org/2000/svg" viewBox="0 0 512 512" width="512" height="512">
	<title>chibidock logo</title>
	<style>
		.s0 { fill: #303042;stroke: #231816;stroke-miterlimit:100;stroke-width: 0 } 
		.s1 { fill: #3f3f52;stroke: #231816;stroke-miterlimit:100;stroke-width: 0 } 
		.s2 { fill: #4b4b5e;stroke: #231816;stroke-miterlimit:100;stroke-width: 0 } 
	</style>
	<g id="Group 1">
		<path id="Rectangle 1" class="s0" d="m485 109.5v171c0 43.1-34.9 78-78 78h-302c-43.1 0-78-34.9-78-78v-171c0-43.1 34.9-78 78-78h302c43.1 0 78 34.9 78 78zm0 0v171c0 43.1-34.9 78-78 78h-302c-43.1 0-78-34.9-78-78v-171c0-43.1 34.9-78 78-78h302c43.1 0 78 34.9 78 78zm0 0v171c0 43.1-34.9 78-78 78h-302c-43.1 0-78-34.9-78-78v-171c0-43.1 34.9-78 78-78h302c43.1 0 78 34.9 78 78z"/>
		<path id="Rectangle 1 copy" class="s1" d="m449 314.5v88c0 43.1-34.9 78-78 78h-230c-43.1 0-78-34.9-78-78v-88c0-43.1 34.9-78 78-78h230c43.1 0 78 34.9 78 78zm0 0v88c0 43.1-34.9 78-78 78h-230c-43.1 0-78-34.9-78-78v-88c0-43.1 34.9-78 78-78h230c43.1 0 78 34.9 78 78zm0 0v88c0 43.1-34.9 78-78 78h-230c-43.1 0-78-34.9-78-78v-88c0-43.1 34.9-78 78-78h230c43.1 0 78 34.9 78 78z"/>
		<path id="Rectangle 2" class="s0" d="m485 314.5v31c0 7.2-5.8 13-13 13h-432c-7.2 0-13-5.8-13-13v-31c0-7.2 5.8-13 13-13h432c7.2 0 13 5.8 13 13z"/>
		<path id="Rectangle 3" class="s0" d="m485 265.5v54h-14v-54z"/>
		<path id="Rectangle 3 copy" class="s0" d="m41 265.5v54h-14v-54z"/>
		<path id="Rectangle 4" class="s2" d="m362.9 124.6c53.8 0 97.5 43.7 97.5 97.5 0 53.8-43.7 97.4-97.5 97.4-53.8 0-97.4-43.6-97.4-97.4 0-53.8 43.6-97.5 97.4-97.5z"/>
		<path id="Rectangle 4" class="s2" d="m339.9 124.6c53.8 0 97.5 43.7 97.5 97.5 0 53.8-43.7 97.4-97.5 97.4-53.8 0-97.4-43.6-97.4-97.4 0-53.8 43.6-97.5 97.4-97.5z"/>
	</g>
</svg>
